<svg xmlns="http://www.w3.org/2000/svg" width="230.00301" height="229.95448" viewBox="0 0 60.85496 60.842125"><ellipse cx="30.427481" cy="30.421062" rx="30.427481" ry="30.421062" style="fill:#343e47;fill-opacity:1;stroke-width:2.06672;stroke-linecap:round;stroke-linejoin:round;stroke-miterlimit:5.2;stop-color:#000"/><path fill="#ed6516" d="M15.852 15.864a20.603 20.603 0 0 1 29.138 0l5.82-5.82a28.84 28.84 0 0 0-40.8 0z"/><path fill="#333e48" d="m52.508 11.877-5.861 5.87a20.616 20.616 0 0 1 1.436 23.31L37.476 30.448 31.698 16.86h-.03v18.351l11.45 11.448a20.608 20.608 0 0 1-25.4 0L29.174 35.21V16.928l-5.807 13.52-10.61 10.61a20.611 20.611 0 0 1 1.44-23.31l-5.861-5.87a28.84 28.84 0 1 0 44.185 0z" style="fill:#fff;fill-opacity:1"/></svg>